<?xml version="1.0" standalone="no"?>
<!DOCTYPE svg PUBLIC "-//W3C//DTD SVG 20010904//EN"
 "http://www.w3.org/TR/2001/REC-SVG-20010904/DTD/svg10.dtd">
<svg version="1.0" xmlns="http://www.w3.org/2000/svg"
 width="700.000000pt" height="700.000000pt" viewBox="0 0 700.000000 700.000000"
 preserveAspectRatio="xMidYMid meet">
<metadata>
Created by potrace 1.14, written by Peter Selinger 2001-2017
</metadata>
<g transform="translate(0.000000,700.000000) scale(0.100000,-0.100000)"
fill="#000000" stroke="none">
<path d="M1439 6996 c-5 -5 -31 -10 -104 -21 -72 -11 -232 -54 -280 -75 -11
-5 -49 -21 -85 -35 -118 -48 -289 -153 -390 -239 -83 -71 -221 -221 -281 -305
-153 -217 -258 -489 -287 -746 -10 -87 -9 -4100 2 -4165 22 -144 31 -185 69
-300 52 -157 124 -301 214 -428 183 -257 442 -459 736 -573 90 -34 242 -76
307 -85 25 -3 56 -8 70 -12 14 -4 936 -8 2050 -8 2078 -2 2130 -1 2280 36 25
6 54 13 65 15 64 15 193 63 280 105 459 222 789 647 884 1140 6 30 14 69 18
85 4 17 8 955 9 2085 2 2131 2 2126 -37 2280 -108 428 -342 760 -701 994 -156
102 -369 189 -541 221 -45 8 -98 18 -117 22 -40 7 -4153 16 -4161 9z"/>
</g>
</svg>
